<mxfile host="app.diagrams.net" modified="2024-04-26T15:22:21.683Z" agent="Mozilla/5.0 (Macintosh; Intel Mac OS X 10_15_7) AppleWebKit/537.36 (KHTML, like Gecko) Chrome/124.0.0.0 Safari/537.36" etag="1kcDEH3PfnFG7jSK51JY" version="24.2.8" type="device">
  <diagram name="Page-1" id="UZokumLvXWKPv0_qn03o">
    <mxGraphModel dx="2048" dy="656" grid="1" gridSize="10" guides="1" tooltips="1" connect="1" arrows="1" fold="1" page="1" pageScale="1" pageWidth="827" pageHeight="1169" math="0" shadow="0">
      <root>
        <mxCell id="0" />
        <mxCell id="1" parent="0" />
        <mxCell id="OwVDjF8n8ooIj7u6XinN-11" style="edgeStyle=orthogonalEdgeStyle;rounded=0;orthogonalLoop=1;jettySize=auto;html=1;exitX=1;exitY=0.75;exitDx=0;exitDy=0;entryX=0.5;entryY=0;entryDx=0;entryDy=0;" edge="1" parent="1" source="OwVDjF8n8ooIj7u6XinN-3" target="OwVDjF8n8ooIj7u6XinN-6">
          <mxGeometry relative="1" as="geometry" />
        </mxCell>
        <mxCell id="OwVDjF8n8ooIj7u6XinN-12" style="edgeStyle=orthogonalEdgeStyle;rounded=0;orthogonalLoop=1;jettySize=auto;html=1;exitX=0.5;exitY=1;exitDx=0;exitDy=0;entryX=0.5;entryY=0;entryDx=0;entryDy=0;" edge="1" parent="1" source="OwVDjF8n8ooIj7u6XinN-3" target="OwVDjF8n8ooIj7u6XinN-7">
          <mxGeometry relative="1" as="geometry" />
        </mxCell>
        <mxCell id="OwVDjF8n8ooIj7u6XinN-3" value="app" style="rounded=0;whiteSpace=wrap;html=1;" vertex="1" parent="1">
          <mxGeometry x="-498" y="100" width="120" height="60" as="geometry" />
        </mxCell>
        <mxCell id="OwVDjF8n8ooIj7u6XinN-16" style="edgeStyle=orthogonalEdgeStyle;rounded=0;orthogonalLoop=1;jettySize=auto;html=1;exitX=0.75;exitY=1;exitDx=0;exitDy=0;entryX=0.5;entryY=0;entryDx=0;entryDy=0;" edge="1" parent="1" source="OwVDjF8n8ooIj7u6XinN-6" target="OwVDjF8n8ooIj7u6XinN-14">
          <mxGeometry relative="1" as="geometry" />
        </mxCell>
        <mxCell id="OwVDjF8n8ooIj7u6XinN-17" style="edgeStyle=orthogonalEdgeStyle;rounded=0;orthogonalLoop=1;jettySize=auto;html=1;exitX=0.25;exitY=1;exitDx=0;exitDy=0;entryX=0.5;entryY=0;entryDx=0;entryDy=0;" edge="1" parent="1" source="OwVDjF8n8ooIj7u6XinN-6" target="OwVDjF8n8ooIj7u6XinN-15">
          <mxGeometry relative="1" as="geometry" />
        </mxCell>
        <mxCell id="OwVDjF8n8ooIj7u6XinN-6" value="TipCalculatorSection" style="rounded=0;whiteSpace=wrap;html=1;" vertex="1" parent="1">
          <mxGeometry x="-258" y="190" width="120" height="60" as="geometry" />
        </mxCell>
        <mxCell id="OwVDjF8n8ooIj7u6XinN-7" value="TipButton" style="rounded=0;whiteSpace=wrap;html=1;" vertex="1" parent="1">
          <mxGeometry x="-498" y="190" width="120" height="60" as="geometry" />
        </mxCell>
        <mxCell id="OwVDjF8n8ooIj7u6XinN-8" value="FormElement" style="rounded=0;whiteSpace=wrap;html=1;" vertex="1" parent="1">
          <mxGeometry x="-758" y="190" width="120" height="60" as="geometry" />
        </mxCell>
        <mxCell id="OwVDjF8n8ooIj7u6XinN-13" style="edgeStyle=orthogonalEdgeStyle;rounded=0;orthogonalLoop=1;jettySize=auto;html=1;exitX=0;exitY=0.75;exitDx=0;exitDy=0;entryX=0.5;entryY=0;entryDx=0;entryDy=0;" edge="1" parent="1" source="OwVDjF8n8ooIj7u6XinN-3" target="OwVDjF8n8ooIj7u6XinN-8">
          <mxGeometry relative="1" as="geometry" />
        </mxCell>
        <mxCell id="OwVDjF8n8ooIj7u6XinN-14" value="BigButton" style="rounded=0;whiteSpace=wrap;html=1;" vertex="1" parent="1">
          <mxGeometry x="-188" y="290" width="120" height="60" as="geometry" />
        </mxCell>
        <mxCell id="OwVDjF8n8ooIj7u6XinN-15" value="TipCalculator" style="rounded=0;whiteSpace=wrap;html=1;" vertex="1" parent="1">
          <mxGeometry x="-378" y="290" width="120" height="60" as="geometry" />
        </mxCell>
        <mxCell id="OwVDjF8n8ooIj7u6XinN-18" value="&lt;font style=&quot;font-size: 10px;&quot;&gt;Click event to trigger calculation&lt;/font&gt;" style="text;html=1;align=center;verticalAlign=middle;whiteSpace=wrap;rounded=0;fillColor=#e1d5e7;strokeColor=#9673a6;" vertex="1" parent="1">
          <mxGeometry x="-538" y="230" width="60" height="80" as="geometry" />
        </mxCell>
        <mxCell id="OwVDjF8n8ooIj7u6XinN-19" value="&lt;font style=&quot;font-size: 10px;&quot;&gt;State for inputs&lt;/font&gt;" style="text;html=1;align=center;verticalAlign=middle;whiteSpace=wrap;rounded=0;fillColor=#e1d5e7;strokeColor=#9673a6;" vertex="1" parent="1">
          <mxGeometry x="-548" y="40" width="60" height="80" as="geometry" />
        </mxCell>
        <mxCell id="OwVDjF8n8ooIj7u6XinN-20" value="&lt;font style=&quot;font-size: 10px;&quot;&gt;state for outputs&amp;nbsp;&lt;/font&gt;" style="text;html=1;align=center;verticalAlign=middle;whiteSpace=wrap;rounded=0;fillColor=#e1d5e7;strokeColor=#9673a6;" vertex="1" parent="1">
          <mxGeometry x="-401" y="40" width="60" height="80" as="geometry" />
        </mxCell>
      </root>
    </mxGraphModel>
  </diagram>
</mxfile>
